<?xml version="1.0" standalone="no"?>
<!DOCTYPE svg PUBLIC "-//W3C//DTD SVG 20010904//EN"
 "http://www.w3.org/TR/2001/REC-SVG-20010904/DTD/svg10.dtd">
<svg version="1.0" xmlns="http://www.w3.org/2000/svg"
 width="402.000000pt" height="402.000000pt" viewBox="0 0 402.000000 402.000000"
 preserveAspectRatio="xMidYMid meet">
<metadata>
Created by potrace 1.14, written by Peter Selinger 2001-2017
</metadata>
<g transform="translate(0.000000,402.000000) scale(0.100000,-0.100000)"
fill="#000000" stroke="none">
<path d="M1839 3605 c-2 -1 -24 -6 -49 -9 -453 -62 -872 -323 -1125 -701 -90
-136 -179 -325 -203 -432 -14 -62 11 -57 27 5 19 76 101 259 158 352 163 267
418 493 707 625 70 32 233 88 292 100 166 35 375 47 534 32 157 -15 394 -84
535 -155 384 -193 683 -537 810 -932 9 -30 21 -59 26 -64 42 -46 -16 136 -91
286 -179 358 -464 623 -835 777 -105 44 -232 81 -331 97 -20 3 -46 8 -58 11
-23 6 -392 14 -397 8z"/>
<path d="M1750 3518 c-558 -98 -1013 -481 -1199 -1010 l-30 -88 27 0 c25 0 29
6 51 74 74 230 262 497 466 663 185 150 425 261 670 309 97 19 368 26 482 11
350 -43 723 -251 945 -526 114 -141 214 -316 259 -455 22 -68 36 -83 63 -73
12 5 10 20 -15 89 -178 488 -579 854 -1072 978 -155 39 -170 41 -362 45 -139
3 -191 0 -285 -17z"/>
<path d="M1894 3415 c-4 -9 -2 -21 4 -27 15 -15 44 -1 40 19 -4 23 -36 29 -44
8z"/>
<path d="M1987 3416 c-9 -22 19 -42 37 -26 19 15 10 40 -14 40 -10 0 -20 -6
-23 -14z"/>
<path d="M2086 3414 c-4 -10 -2 -22 3 -27 14 -14 43 0 39 20 -4 24 -34 28 -42
7z"/>
<path d="M1797 3407 c-3 -8 -2 -20 3 -27 11 -18 42 -4 38 17 -4 22 -34 29 -41
10z"/>
<path d="M2184 3405 c-7 -18 3 -35 21 -35 15 0 24 19 18 38 -6 17 -32 15 -39
-3z"/>
<path d="M1700 3381 c0 -24 25 -34 40 -16 15 18 5 35 -21 35 -12 0 -19 -7 -19
-19z"/>
<path d="M2274 3389 c-8 -14 21 -43 35 -35 6 4 11 16 11 27 0 21 -34 27 -46 8z"/>
<path d="M1607 3366 c-7 -17 18 -40 33 -31 5 3 10 15 10 26 0 23 -35 27 -43 5z"/>
<path d="M2371 3366 c-9 -10 -8 -16 4 -26 19 -15 47 3 38 26 -7 18 -27 18 -42
0z"/>
<path d="M1517 3336 c-7 -17 18 -40 33 -31 5 3 10 15 10 26 0 23 -35 27 -43 5z"/>
<path d="M2463 3334 c-3 -8 -1 -20 6 -27 14 -14 47 15 37 32 -10 16 -36 13
-43 -5z"/>
<path d="M1858 3325 c-2 -2 -23 -6 -48 -10 -180 -25 -379 -104 -550 -218 -98
-66 -274 -242 -339 -340 -72 -107 -161 -289 -161 -328 0 -5 6 -9 14 -9 7 0 21
21 31 48 133 354 432 641 798 764 261 88 569 86 825 -4 357 -125 633 -386 774
-730 19 -46 38 -78 46 -78 18 0 11 32 -26 115 -217 491 -685 795 -1224 793
-75 0 -138 -1 -140 -3z"/>
<path d="M1432 3312 c-18 -12 -4 -42 20 -42 14 0 19 6 16 22 -3 24 -17 32 -36
20z"/>
<path d="M2557 3313 c-15 -14 -7 -43 12 -43 26 0 36 17 21 35 -14 16 -23 19
-33 8z"/>
<path d="M1347 3273 c-15 -14 -7 -43 12 -43 23 0 34 23 18 39 -13 13 -21 14
-30 4z"/>
<path d="M2641 3261 c-12 -21 -5 -31 20 -31 21 0 31 24 16 39 -16 16 -25 14
-36 -8z"/>
<path d="M1256 3221 c-10 -16 5 -42 23 -39 21 4 21 42 -1 46 -9 2 -19 -1 -22
-7z"/>
<path d="M2724 3215 c-7 -18 3 -35 21 -35 15 0 28 27 19 41 -8 14 -34 11 -40
-6z"/>
<path d="M1180 3165 c-10 -11 -10 -19 -2 -27 15 -15 44 -2 40 19 -4 23 -22 27
-38 8z"/>
<path d="M2811 3171 c-17 -11 -7 -41 13 -41 22 0 30 20 15 36 -9 8 -19 10 -28
5z"/>
<path d="M1097 3106 c-6 -16 11 -36 30 -36 7 0 13 11 13 25 0 18 -5 25 -19 25
-10 0 -21 -6 -24 -14z"/>
<path d="M2887 3113 c-15 -14 -7 -43 12 -43 23 0 34 23 18 39 -13 13 -21 14
-30 4z"/>
<path d="M1030 3045 c-10 -11 -10 -19 -2 -27 15 -15 44 -2 40 19 -4 23 -22 27
-38 8z"/>
<path d="M2963 3053 c-17 -6 -16 -28 1 -42 21 -17 45 15 25 33 -8 8 -20 12
-26 9z"/>
<path d="M958 2978 c-8 -21 2 -38 24 -38 14 0 19 6 16 22 -3 25 -33 36 -40 16z"/>
<path d="M3027 2983 c-15 -14 -7 -43 12 -43 23 0 34 23 18 39 -13 13 -21 14
-30 4z"/>
<path d="M1913 2963 c-7 -2 -13 -12 -13 -21 0 -12 3 -13 12 -4 7 7 27 12 46
12 19 0 31 4 27 10 -6 10 -50 12 -72 3z"/>
<path d="M2000 2966 c0 -2 7 -9 15 -16 9 -7 15 -8 15 -2 0 5 -7 12 -15 16 -8
3 -15 4 -15 2z"/>
<path d="M2048 2936 c-34 -9 -51 -10 -59 -2 -9 8 -10 8 -5 -1 4 -7 -12 -17
-44 -28 -28 -9 -56 -26 -63 -36 -6 -10 -17 -19 -23 -19 -15 0 -46 -35 -37 -43
3 -4 1 -7 -5 -7 -8 0 -28 -38 -24 -47 1 -1 -5 -14 -13 -29 -25 -48 8 -67 53
-31 9 7 11 6 6 -6 -3 -9 -19 -19 -35 -22 -16 -4 -31 -11 -35 -16 -9 -15 6 -49
22 -49 8 0 12 4 9 10 -3 6 1 7 9 4 9 -3 16 -1 16 5 0 6 5 11 10 11 6 0 10 -7
10 -15 0 -8 -14 -17 -35 -21 -40 -7 -43 -16 -16 -43 11 -11 16 -23 13 -27 -4
-5 0 -3 9 4 9 6 20 8 24 4 5 -4 5 -1 1 6 -4 7 -12 10 -17 7 -5 -4 -9 -1 -9 4
0 6 7 11 16 11 8 0 12 5 9 10 -3 6 -2 10 3 10 5 0 12 -8 15 -17 2 -10 8 -26
12 -35 5 -12 1 -17 -16 -20 -31 -4 -34 -23 -4 -24 14 -1 22 2 19 7 -3 5 -1 9
5 9 10 0 36 -39 29 -44 -2 -2 -12 -9 -23 -15 -18 -11 -16 -12 14 -7 19 4 39 2
46 -4 9 -7 16 -6 24 3 8 11 6 18 -9 32 -11 10 -20 24 -20 32 0 7 -4 13 -9 13
-17 0 -44 104 -44 167 1 118 71 209 190 249 73 24 59 31 -19 10z m-198 -120
c0 -3 -4 -8 -10 -11 -5 -3 -10 -1 -10 4 0 6 5 11 10 11 6 0 10 -2 10 -4z m0
-46 c0 -5 -6 -9 -12 -7 -7 1 -12 -3 -11 -9 1 -6 -5 -11 -13 -11 -11 0 -11 4 3
19 18 20 33 24 33 8z m91 -317 c13 -17 13 -17 -6 -3 -11 8 -22 16 -24 17 -2 2
0 3 6 3 6 0 17 -8 24 -17z"/>
<path d="M2140 2941 c0 -4 -29 -15 -65 -26 -40 -11 -65 -24 -65 -32 0 -8 -4
-12 -8 -9 -10 6 -75 -61 -85 -86 -10 -28 25 -22 51 7 12 14 19 25 15 25 -14 0
31 40 46 41 10 0 12 2 4 6 -7 2 -13 9 -13 14 0 6 5 7 10 4 6 -4 17 -1 25 5 8
7 15 9 15 4 0 -5 4 -4 8 2 4 6 33 15 66 20 58 9 58 9 27 21 -17 6 -31 8 -31 4z"/>
<path d="M1920 2921 c0 -5 9 -7 20 -4 11 3 20 7 20 9 0 2 -9 4 -20 4 -11 0
-20 -4 -20 -9z"/>
<path d="M2215 2920 c-3 -5 -2 -10 4 -10 5 0 13 5 16 10 3 6 2 10 -4 10 -5 0
-13 -4 -16 -10z"/>
<path d="M901 2911 c-19 -12 -6 -43 16 -39 10 2 18 12 18 22 0 22 -14 29 -34
17z"/>
<path d="M3091 2911 c-17 -11 -7 -41 13 -41 22 0 30 20 15 36 -9 8 -19 10 -28
5z"/>
<path d="M1800 2852 c-47 -31 -89 -67 -95 -78 -6 -12 -17 -29 -24 -38 -19 -22
-8 -30 21 -16 19 9 20 9 6 -2 -9 -7 -23 -17 -31 -23 -23 -15 -32 -55 -13 -55
9 0 16 5 16 11 0 5 4 8 9 5 5 -4 12 0 14 6 4 10 6 10 6 1 1 -7 -13 -20 -30
-29 -29 -15 -31 -18 -25 -57 7 -41 21 -67 37 -67 5 0 6 7 3 15 -5 13 -1 12 25
-2 36 -21 35 -37 -3 -41 -22 -3 -25 -6 -15 -18 6 -7 16 -11 23 -7 29 18 66 11
91 -19 14 -16 30 -28 35 -26 5 2 -4 18 -21 36 -16 18 -42 57 -56 88 -22 50
-25 66 -20 128 6 86 34 143 96 197 24 22 42 41 40 44 -3 2 -43 -21 -89 -53z
m-84 -259 c-4 -22 -43 -36 -50 -18 -3 9 0 12 8 9 7 -3 19 2 26 11 16 19 19 19
16 -2z"/>
<path d="M2180 2896 c0 -9 30 -14 35 -6 4 6 -3 10 -14 10 -12 0 -21 -2 -21 -4z"/>
<path d="M2230 2882 c0 -4 13 -13 29 -19 16 -6 43 -29 59 -52 17 -23 33 -42
36 -42 17 2 20 0 10 -7 -7 -4 -8 -15 -3 -29 8 -23 24 -30 32 -15 9 13 -48 109
-61 104 -7 -2 -12 0 -11 5 4 15 -13 43 -22 37 -5 -3 -16 2 -25 10 -16 17 -44
22 -44 8z"/>
<path d="M2336 2869 c10 -15 23 -25 27 -22 5 3 7 6 5 7 -2 0 -14 10 -27 21
l-25 20 20 -26z"/>
<path d="M2170 2860 c8 -5 22 -9 30 -9 10 0 8 3 -5 9 -27 12 -43 12 -25 0z"/>
<path d="M2020 2835 c-7 -9 -8 -15 -2 -15 5 0 12 7 16 15 3 8 4 15 2 15 -2 0
-9 -7 -16 -15z"/>
<path d="M2101 2846 c10 -9 79 -14 74 -5 -4 5 -22 9 -42 9 -20 0 -34 -2 -32
-4z"/>
<path d="M834 2829 c-10 -17 23 -46 37 -32 7 7 9 19 6 27 -7 18 -33 21 -43 5z"/>
<path d="M3144 2825 c-7 -18 3 -35 21 -35 15 0 24 19 18 38 -6 17 -32 15 -39
-3z"/>
<path d="M2383 2806 c7 -14 13 -23 15 -21 7 6 -9 45 -18 45 -4 0 -3 -11 3 -24z"/>
<path d="M1687 2790 c-43 -50 -77 -131 -77 -180 1 -80 2 -90 10 -90 4 0 10 -9
13 -21 3 -12 10 -18 16 -15 5 4 15 -4 21 -16 10 -21 10 -22 -3 -5 -9 10 -18
14 -21 9 -3 -5 8 -22 24 -37 24 -23 33 -26 43 -16 9 10 9 12 -3 9 -8 -2 -15 2
-15 7 -1 6 -14 35 -28 65 -47 96 -29 219 41 293 14 15 21 27 15 27 -6 0 -22
-13 -36 -30z"/>
<path d="M1980 2779 c-17 -30 -6 -34 14 -4 9 14 12 25 7 25 -6 0 -15 -9 -21
-21z"/>
<path d="M2278 2773 c6 -2 18 -2 25 0 6 3 1 5 -13 5 -14 0 -19 -2 -12 -5z"/>
<path d="M2412 2745 c6 -14 13 -23 16 -21 7 7 -9 46 -18 46 -5 0 -4 -11 2 -25z"/>
<path d="M784 2745 c-4 -9 -2 -21 3 -26 14 -14 45 1 41 20 -4 22 -37 26 -44 6z"/>
<path d="M1905 2750 c-4 -6 -8 -21 -11 -34 -4 -22 -2 -23 19 -13 13 6 28 21
34 34 10 21 9 23 -12 23 -13 0 -27 -5 -30 -10z"/>
<path d="M3194 2745 c-4 -9 -2 -21 4 -27 15 -15 44 -1 40 19 -4 23 -36 29 -44
8z"/>
<path d="M1964 2715 c-4 -18 -15 -26 -40 -31 -24 -4 -34 -12 -34 -25 0 -17 39
-48 41 -32 3 28 9 43 28 62 12 12 21 28 21 36 0 23 -9 18 -16 -10z"/>
<path d="M2300 2720 c8 -5 20 -10 25 -10 6 0 3 5 -5 10 -8 5 -19 10 -25 10 -5
0 -3 -5 5 -10z"/>
<path d="M2065 2710 c27 -12 35 -12 35 0 0 6 -12 10 -27 9 -25 0 -26 -1 -8 -9z"/>
<path d="M2389 2700 c-19 -11 -14 -63 5 -57 8 3 21 68 13 67 -1 0 -9 -5 -18
-10z"/>
<path d="M1594 2665 c-31 -76 -12 -174 48 -238 22 -23 34 -32 28 -20 -5 12
-15 25 -20 28 -42 26 -68 160 -44 228 16 47 8 49 -12 2z"/>
<path d="M2432 2670 c0 -19 2 -27 5 -17 2 9 2 25 0 35 -3 9 -5 1 -5 -18z"/>
<path d="M2310 2679 c0 -5 10 -9 22 -9 12 0 18 3 14 7 -10 11 -36 12 -36 2z"/>
<path d="M736 2664 c-4 -10 -2 -22 3 -27 14 -14 43 0 39 20 -4 24 -34 28 -42
7z"/>
<path d="M3247 2673 c-15 -14 -7 -43 12 -43 26 0 36 17 21 35 -14 16 -23 19
-33 8z"/>
<path d="M1960 2650 c0 -11 4 -20 9 -20 5 0 7 9 4 20 -3 11 -7 20 -9 20 -2 0
-4 -9 -4 -20z"/>
<path d="M2010 2652 c0 -5 24 -9 52 -11 29 -1 50 0 48 2 -10 9 -100 16 -100 9z"/>
<path d="M2260 2630 c18 -12 30 -13 30 -2 0 4 -10 9 -22 9 -18 2 -20 0 -8 -7z"/>
<path d="M2305 2629 c-4 -5 5 -9 19 -9 14 0 26 4 26 8 0 11 -39 12 -45 1z"/>
<path d="M2375 2620 c-3 -5 -4 -10 0 -10 3 0 1 -9 -5 -20 -8 -16 -8 -20 4 -20
8 0 19 14 25 30 8 24 7 30 -4 30 -8 0 -17 -4 -20 -10z"/>
<path d="M1918 2613 c-10 -2 -18 -8 -18 -11 1 -17 20 -36 38 -37 15 -1 19 5
18 27 -1 28 -5 30 -38 21z"/>
<path d="M2426 2594 c-4 -14 -5 -29 -2 -31 3 -3 8 7 12 21 3 15 4 29 1 32 -2
3 -8 -7 -11 -22z"/>
<path d="M1970 2600 c0 -8 5 -22 10 -30 9 -13 10 -13 10 0 0 8 -5 22 -10 30
-9 13 -10 13 -10 0z"/>
<path d="M2020 2602 c0 -5 7 -9 15 -9 8 0 12 4 9 9 -3 4 -9 8 -15 8 -5 0 -9
-4 -9 -8z"/>
<path d="M2145 2589 c7 -10 55 -18 55 -9 0 4 -13 10 -29 12 -17 2 -28 1 -26
-3z"/>
<path d="M694 2575 c-4 -10 -1 -21 7 -26 20 -12 34 -5 34 17 0 24 -33 31 -41
9z"/>
<path d="M2270 2579 c0 -4 16 -9 35 -11 19 -2 35 -1 35 3 0 4 -16 9 -35 11
-19 2 -35 1 -35 -3z"/>
<path d="M3284 2575 c-7 -18 3 -35 21 -35 15 0 28 27 19 41 -8 14 -34 11 -40
-6z"/>
<path d="M2346 2523 c-29 -47 -23 -59 10 -18 14 17 29 36 35 43 7 8 5 12 -5
12 -9 0 -26 -17 -40 -37z"/>
<path d="M1952 2534 c-21 -10 -21 -12 -5 -25 11 -9 14 -10 9 -1 -9 15 6 16 22
0 13 -13 15 -2 4 23 -6 12 -11 13 -30 3z"/>
<path d="M2117 2538 c-7 -5 2 -8 23 -9 19 0 60 -2 90 -5 30 -3 51 -2 47 2 -10
11 -146 21 -160 12z"/>
<path d="M2010 2520 c6 -11 13 -20 16 -20 2 0 0 9 -6 20 -6 11 -13 20 -16 20
-2 0 0 -9 6 -20z"/>
<path d="M2400 2521 c-6 -12 -7 -21 -1 -21 10 0 24 30 17 37 -2 3 -9 -5 -16
-16z"/>
<path d="M657 2486 c-3 -8 1 -20 10 -27 13 -11 17 -10 29 5 7 11 11 23 8 27
-8 14 -41 10 -47 -5z"/>
<path d="M3317 2486 c-9 -22 19 -42 37 -26 19 15 10 40 -14 40 -10 0 -20 -6
-23 -14z"/>
<path d="M2000 2473 c-24 -12 -24 -13 -3 -13 12 0 30 -3 40 -6 11 -4 14 -3 7
3 -6 4 -13 13 -15 19 -3 7 -12 6 -29 -3z"/>
<path d="M2040 2486 c0 -2 8 -10 18 -17 15 -13 16 -12 3 4 -13 16 -21 21 -21
13z"/>
<path d="M2088 2483 c6 -2 18 -2 25 0 6 3 1 5 -13 5 -14 0 -19 -2 -12 -5z"/>
<path d="M2369 2468 c-12 -23 -12 -23 10 -4 23 21 26 26 11 26 -5 0 -15 -10
-21 -22z"/>
<path d="M2172 2475 c8 -9 89 -12 94 -3 3 4 -18 8 -47 8 -29 0 -50 -2 -47 -5z"/>
<path d="M2295 2459 c-11 -17 1 -21 15 -4 8 9 8 15 2 15 -6 0 -14 -5 -17 -11z"/>
<path d="M1776 2445 c5 -11 -1 -15 -22 -15 -22 0 -25 -3 -14 -10 8 -5 21 -5
30 0 10 6 22 2 38 -12 28 -27 29 -9 1 26 -22 28 -42 35 -33 11z"/>
<path d="M2066 2424 c-17 -12 -17 -14 -4 -14 9 0 20 5 23 11 11 17 2 18 -19 3z"/>
<path d="M2260 2429 c0 -5 5 -7 10 -4 6 3 10 8 10 11 0 2 -4 4 -10 4 -5 0 -10
-5 -10 -11z"/>
<path d="M2326 2425 c-11 -8 -17 -17 -14 -20 3 -3 16 3 29 14 27 23 14 28 -15
6z"/>
<path d="M1955 2420 c-3 -5 -17 -10 -31 -10 -19 0 -24 -5 -24 -24 0 -28 -15
-33 -87 -31 -50 2 -70 -9 -55 -31 8 -10 64 -15 57 -4 -2 4 14 7 36 8 36 2 40
0 34 -18 -5 -16 -2 -20 19 -20 26 0 32 9 42 75 3 22 7 41 8 43 2 1 15 -7 29
-19 15 -11 27 -16 27 -11 0 6 -6 13 -12 16 -7 3 -4 4 7 3 11 -2 19 -7 18 -13
-1 -5 17 -10 40 -11 l42 -2 -38 14 c-20 8 -47 21 -59 30 -26 17 -44 19 -53 5z
m35 -10 c0 -5 -2 -10 -4 -10 -3 0 -8 5 -11 10 -3 6 -1 10 4 10 6 0 11 -4 11
-10z"/>
<path d="M2153 2423 c4 -3 2 -12 -4 -20 -9 -9 -8 -13 0 -13 6 0 11 2 11 4 0 2
3 11 6 20 4 10 1 16 -7 16 -7 0 -9 -3 -6 -7z"/>
<path d="M2215 2420 c-3 -5 1 -10 9 -10 8 0 18 5 21 10 3 6 -1 10 -9 10 -8 0
-18 -4 -21 -10z"/>
<path d="M2263 2389 c-25 -9 -30 -19 -10 -19 15 0 43 17 37 23 -3 3 -15 1 -27
-4z"/>
<path d="M1701 2367 c-17 -43 -17 -82 -1 -82 15 0 27 32 29 78 1 33 -16 36
-28 4z"/>
<path d="M13 2362 c-8 -8 -9 -19 -4 -30 5 -9 20 -69 35 -132 14 -63 37 -164
52 -225 14 -60 27 -117 29 -125 2 -8 12 -55 24 -103 12 -49 23 -101 26 -117 3
-16 10 -42 16 -57 6 -15 10 -28 9 -28 -4 0 14 -85 19 -86 3 -1 151 -3 329 -4
301 -1 322 0 322 16 0 10 -5 21 -10 24 -6 4 -143 6 -305 6 -162 0 -297 4 -299
8 -3 4 -7 18 -10 32 -2 13 -43 190 -90 392 -47 203 -86 374 -86 380 0 9 187
12 791 12 759 0 791 1 801 18 5 10 7 22 3 25 -3 4 -374 7 -822 7 -657 0 -819
-3 -830 -13z"/>
<path d="M2195 2370 c4 -6 11 -8 16 -5 14 9 11 15 -7 15 -8 0 -12 -5 -9 -10z"/>
<path d="M2378 2369 c-7 -4 -7 -13 0 -25 10 -19 36 -19 792 -19 l782 0 -6 -30
c-3 -16 -26 -120 -51 -230 -26 -110 -48 -209 -51 -220 -2 -11 -21 -92 -42
-180 l-37 -160 -300 -2 c-272 -2 -301 -3 -312 -19 -7 -10 -13 -21 -13 -24 0
-11 648 -6 659 5 5 6 19 51 30 100 12 50 30 128 41 175 11 47 33 144 50 215
42 187 88 374 94 384 3 5 -2 15 -10 22 -14 11 -160 14 -816 14 -440 0 -804 -3
-810 -6z"/>
<path d="M2018 2314 c-16 -8 -29 -19 -29 -24 -5 -33 -2 -35 54 -35 70 -1 76
13 7 17 -47 3 -50 4 -38 21 7 9 24 19 37 22 30 6 40 15 15 15 -10 -1 -31 -8
-46 -16z"/>
<path d="M2095 2320 c3 -5 8 -10 11 -10 2 0 4 5 4 10 0 6 -5 10 -11 10 -5 0
-7 -4 -4 -10z"/>
<path d="M2172 2290 c12 -16 25 -30 29 -30 4 0 14 -3 23 -6 24 -9 19 8 -9 39
-14 15 -35 27 -46 27 -19 0 -19 -1 3 -30z"/>
<path d="M1750 2270 c0 -17 7 -20 40 -20 22 0 40 5 40 10 0 6 -6 10 -12 9 -31
-4 -59 2 -53 11 3 6 1 10 -4 10 -6 0 -11 -9 -11 -20z"/>
<path d="M136 2218 c20 -89 72 -311 91 -388 8 -36 26 -112 38 -169 13 -57 28
-106 33 -110 8 -5 486 -6 537 -2 5 1 4 6 -2 12 -7 7 -98 11 -266 11 l-255 1
-8 36 c-4 20 -8 41 -10 46 -24 103 -107 455 -110 470 -2 11 -10 45 -17 75
l-13 56 728 -1 c573 0 729 3 733 13 3 9 -149 12 -744 12 l-749 0 14 -62z"/>
<path d="M1857 2273 c-15 -14 -6 -23 23 -23 20 0 30 5 30 15 0 15 -40 21 -53
8z"/>
<path d="M2422 2268 c4 -10 166 -13 719 -14 393 -1 717 -2 721 -3 3 0 2 -17
-4 -37 -5 -20 -11 -44 -13 -53 -2 -9 -17 -77 -35 -151 -17 -74 -45 -193 -62
-265 -16 -71 -34 -140 -38 -152 -9 -21 -11 -22 -260 -21 -178 1 -254 -2 -262
-10 -14 -14 -34 -13 281 -15 256 -2 271 0 271 42 0 10 9 56 21 102 11 46 22
91 24 99 17 78 105 454 111 473 5 16 -35 17 -736 17 -580 0 -741 -3 -738 -12z"/>
<path d="M1650 2260 c0 -5 9 -10 19 -10 11 0 23 5 26 10 4 6 -5 10 -19 10 -14
0 -26 -4 -26 -10z"/>
<path d="M2110 2262 c0 -5 7 -9 15 -9 8 0 15 4 15 9 0 4 -7 8 -15 8 -8 0 -15
-4 -15 -8z"/>
<path d="M470 2173 c-17 -7 -29 -17 -26 -22 4 -5 1 -13 -5 -17 -8 -4 -9 -3 -5
4 4 7 3 12 -2 12 -12 0 -37 -59 -28 -67 3 -3 6 1 6 10 0 9 4 18 9 21 5 4 7 -3
4 -14 -3 -11 -9 -23 -14 -26 -5 -3 -9 -13 -9 -22 0 -15 2 -15 10 -2 5 8 10 10
10 5 0 -6 -5 -16 -11 -22 -17 -17 -1 -67 31 -98 17 -16 30 -35 30 -42 0 -7 5
-13 10 -13 22 0 26 -2 48 -23 13 -12 27 -21 30 -20 4 1 9 -1 12 -4 3 -4 -1 -3
-7 1 -10 5 -13 -6 -13 -44 0 -36 3 -49 12 -44 7 4 8 3 4 -5 -4 -6 -11 -9 -16
-6 -5 3 -11 1 -15 -5 -10 -16 -41 -12 -56 7 -10 11 -10 14 -1 9 8 -5 12 0 12
16 0 17 -3 19 -9 9 -5 -8 -10 -9 -12 -3 -6 15 -57 3 -63 -15 -3 -8 -1 -24 5
-36 13 -24 66 -77 71 -71 2 2 19 5 38 6 21 2 45 14 67 34 30 29 33 36 33 92 0
39 4 62 13 65 6 3 3 6 -7 6 -11 1 -17 4 -13 7 3 4 -9 23 -28 43 -19 20 -35 42
-35 49 0 6 -8 12 -18 12 -10 0 -29 12 -43 27 -13 14 -18 23 -11 19 8 -5 12 2
12 24 0 39 17 73 32 64 7 -4 8 -3 4 4 -9 15 -11 15 -31 -4 -9 -9 -18 -14 -21
-11 -10 10 29 38 45 32 9 -4 21 -8 28 -9 7 -1 16 -6 20 -11 4 -4 2 -5 -4 -1
-9 5 -13 0 -13 -15 0 -17 4 -20 23 -15 12 3 28 6 34 6 23 0 10 54 -20 81 -34
32 -76 40 -117 22z m-45 -173 c3 -5 1 -10 -4 -10 -6 0 -11 5 -11 10 0 6 2 10
4 10 3 0 8 -4 11 -10z"/>
<path d="M684 2179 c-5 -8 2 -13 18 -10 8 1 4 -26 -5 -35 -12 -12 -8 -26 6
-18 8 5 8 2 -2 -9 -10 -13 -10 -17 -1 -17 9 0 10 -3 2 -13 -15 -18 -8 -97 9
-109 11 -8 11 -9 -3 -5 -23 8 -34 -39 -15 -62 15 -17 19 -54 5 -45 -14 9 -2
-37 13 -48 11 -8 10 -9 -5 -4 -15 5 -18 2 -14 -17 2 -13 -1 -29 -9 -35 -7 -7
-13 -17 -13 -22 0 -11 35 -8 46 3 4 3 -4 4 -16 2 -12 -2 -20 -1 -16 2 10 10
56 11 50 1 -3 -4 -2 -8 3 -9 4 0 18 -2 31 -3 12 -2 22 2 22 7 0 5 -9 7 -21 4
-16 -4 -18 -3 -8 9 8 10 8 14 0 14 -6 0 -10 11 -9 24 1 14 6 22 10 20 4 -3 8
2 8 11 0 9 -4 14 -8 11 -4 -2 -9 5 -9 17 -2 17 0 19 7 7 8 -13 10 -12 10 3 0
9 -4 17 -10 17 -5 0 -10 5 -10 12 0 6 3 8 7 5 3 -4 12 1 18 10 10 14 9 20 -9
35 -11 9 -15 17 -8 18 6 0 12 9 12 21 0 11 -4 18 -8 15 -4 -2 -9 5 -9 17 -2
17 0 19 7 7 7 -11 10 -8 10 15 0 23 -3 27 -10 15 -6 -9 -10 -10 -10 -3 0 6 5
15 11 19 8 4 7 9 -2 15 -10 6 -11 9 -1 9 6 0 12 8 12 18 0 14 -2 15 -10 2 -6
-9 -10 -10 -10 -3 0 6 5 15 10 18 6 3 10 13 10 21 0 9 7 22 15 31 9 8 13 18
10 22 -4 3 -11 -2 -16 -12 -6 -9 -15 -17 -22 -17 -7 0 -6 4 3 10 8 5 13 10 10
11 -36 6 -81 5 -86 -2z"/>
<path d="M837 2174 c3 -8 9 -11 14 -8 5 3 4 -7 -2 -23 -7 -20 -7 -29 1 -31 7
-3 7 -9 -2 -20 -8 -10 -9 -13 -1 -9 6 4 14 3 18 -3 3 -5 0 -10 -8 -10 -7 0
-14 -7 -14 -15 0 -8 4 -12 8 -9 4 2 10 0 14 -6 3 -5 -2 -10 -12 -10 -17 -1
-16 -2 2 -17 16 -13 17 -15 3 -10 -10 4 -18 4 -18 0 0 -3 8 -12 18 -20 9 -8
11 -11 3 -7 -9 4 -12 2 -9 -7 3 -8 -1 -20 -9 -27 -15 -15 -8 -36 9 -26 5 4 4
-4 -2 -17 -10 -18 -10 -24 -1 -27 9 -3 9 -8 -1 -20 -8 -10 -9 -13 -1 -9 6 4
14 3 18 -3 3 -5 0 -10 -8 -10 -7 0 -14 -7 -14 -15 0 -8 4 -12 8 -9 4 2 10 0
14 -6 3 -5 -2 -10 -12 -10 -15 0 -16 -2 -3 -10 8 -5 10 -10 5 -10 -6 0 -16 -9
-23 -21 -12 -19 -11 -20 9 -14 14 5 19 4 15 -4 -4 -6 -2 -11 3 -11 6 0 11 6
11 14 0 15 24 16 37 1 4 -4 3 -5 -4 -1 -6 3 -14 3 -17 -2 -2 -4 9 -8 25 -7 16
0 29 3 29 7 0 5 -7 8 -16 8 -8 0 -12 5 -9 10 3 6 1 10 -6 10 -7 0 -4 7 7 16
15 12 15 14 2 11 -18 -6 -18 7 0 41 7 12 8 22 3 22 -5 0 -11 -3 -14 -7 -5 -10
1 12 10 34 4 10 2 14 -4 10 -7 -4 -10 0 -9 10 2 9 8 19 14 21 6 2 8 10 5 18
-5 13 -7 13 -14 2 -6 -9 -9 -9 -9 -1 0 6 5 15 10 18 6 3 10 14 10 23 0 13 -2
14 -9 4 -5 -8 -8 1 -7 26 0 24 5 38 11 34 5 -3 4 1 -3 10 -9 11 -10 18 -2 23
5 3 13 -1 16 -9 3 -9 11 -13 17 -9 5 3 7 2 4 -4 -4 -6 0 -19 8 -29 14 -18 17
-17 61 31 25 28 42 44 38 36 -11 -23 -15 -89 -4 -71 6 9 10 10 10 3 0 -6 -4
-15 -10 -18 -15 -9 -12 -27 3 -19 9 5 9 4 0 -6 -9 -9 -9 -19 -2 -33 8 -13 8
-22 0 -30 -6 -6 -11 -18 -11 -26 0 -14 1 -14 10 -1 6 9 10 10 10 3 0 -6 -4
-14 -9 -17 -5 -3 -7 -28 -6 -55 3 -37 -1 -53 -15 -69 -18 -20 -18 -20 1 -25
10 -3 22 0 26 5 4 7 1 8 -8 3 -12 -7 -12 -6 -1 6 11 12 15 12 23 -3 6 -11 18
-15 36 -12 32 6 44 14 21 14 -9 0 -19 7 -22 16 -9 23 -7 56 2 50 5 -3 9 1 9 9
0 8 -4 15 -8 15 -11 0 -18 39 -8 46 5 3 9 0 9 -7 0 -7 3 -10 6 -6 3 3 2 12 -2
19 -12 18 -11 67 1 61 6 -3 4 0 -2 8 -7 7 -13 20 -13 29 0 13 1 13 10 0 6 -9
10 -10 10 -3 0 6 -4 15 -10 18 -5 3 -10 14 -10 23 0 15 2 15 10 2 6 -9 10 -10
10 -3 0 6 -4 15 -10 18 -5 3 -10 14 -10 23 0 15 2 15 10 2 6 -9 10 -10 10 -3
0 6 -4 15 -10 18 -5 3 -10 11 -10 16 0 6 4 8 8 5 11 -6 10 34 -1 51 -4 6 -5
18 -1 26 4 11 -3 14 -31 13 -38 -2 -80 -39 -68 -61 4 -5 3 -7 -2 -3 -4 4 -14
0 -22 -10 -12 -16 -14 -16 -24 1 -28 48 -57 70 -92 72 -27 2 -34 -1 -30 -11z
m270 -49 c0 -8 -4 -12 -9 -9 -5 3 -6 10 -3 15 9 13 12 11 12 -6z"/>
<path d="M1120 2175 c-7 -9 -11 -18 -8 -20 3 -3 11 1 18 10 7 9 11 18 8 20 -3
3 -11 -1 -18 -10z"/>
<path d="M1255 2182 c-36 -7 -67 -44 -63 -74 3 -15 1 -25 -4 -22 -11 7 -10 -3
3 -28 8 -15 8 -19 0 -14 -6 4 -11 4 -11 1 0 -4 5 -16 11 -27 7 -13 7 -18 1
-14 -6 4 -10 -2 -9 -14 1 -11 5 -20 11 -20 5 0 2 -8 -7 -18 -21 -23 -21 -31 1
-49 9 -8 11 -12 5 -8 -7 3 -13 2 -13 -2 0 -5 6 -15 13 -22 10 -11 10 -13 0 -7
-16 9 -16 1 -2 -26 9 -16 8 -19 -2 -13 -9 6 -11 3 -6 -9 4 -10 7 -20 7 -22 0
-3 5 -2 12 2 7 4 8 3 4 -5 -8 -12 16 -41 33 -41 6 0 11 -5 11 -10 0 -14 69 16
100 43 l25 22 -20 -24 c-11 -12 -36 -32 -55 -42 -26 -15 -29 -18 -10 -13 59
14 113 84 81 103 -11 7 -11 10 0 15 8 3 -2 3 -21 0 -19 -3 -41 -14 -49 -25
-16 -23 -47 -25 -55 -3 -9 24 -7 31 4 14 8 -12 9 -10 7 7 -2 12 -6 26 -10 29
-10 10 -9 42 2 48 4 3 6 -7 4 -22 -3 -27 -3 -27 7 -3 8 18 7 28 -5 41 -17 18
-21 75 -5 65 6 -3 10 -1 10 4 0 6 -4 11 -10 11 -5 0 -10 5 -10 11 0 5 6 7 13
3 10 -6 10 -4 0 7 -20 20 -15 53 8 67 12 7 18 16 15 19 -3 3 -14 0 -23 -8 -17
-12 -17 -12 -2 4 15 18 49 14 49 -5 0 -5 4 -7 9 -4 4 3 6 -6 3 -20 -4 -23 -2
-25 24 -18 16 4 32 9 37 11 11 6 8 33 -4 33 -5 0 -8 4 -5 8 7 12 -44 58 -69
64 -11 2 -29 2 -40 0z m111 -91 c-6 -9 -46 -22 -46 -15 0 3 10 9 23 14 29 11
29 11 23 1z"/>
<path d="M1480 2178 c-14 -5 -33 -20 -43 -34 -16 -21 -17 -27 -5 -41 9 -12 9
-15 1 -9 -9 5 -13 -2 -13 -24 0 -22 4 -29 13 -24 10 6 10 4 0 -7 -16 -16 -17
-33 -2 -24 6 4 5 -3 -3 -14 -10 -17 -10 -23 -1 -29 9 -6 7 -13 -9 -26 -18 -16
-19 -20 -7 -30 8 -6 13 -20 11 -31 -2 -16 -1 -17 7 -5 7 9 11 10 11 3 0 -6 -5
-15 -10 -18 -8 -5 -7 -12 2 -23 11 -13 11 -14 0 -8 -10 6 -13 2 -10 -15 2 -13
9 -23 15 -22 7 2 10 -3 7 -10 -4 -12 35 -47 67 -59 8 -3 29 0 46 7 37 16 75
66 55 73 -7 2 -9 9 -5 15 11 18 12 36 2 43 -11 7 -12 41 0 48 4 3 6 -7 4 -22
l-4 -27 13 25 c13 22 12 26 -4 38 -18 13 -26 38 -9 28 4 -3 7 16 6 42 -2 26
-4 47 -5 47 -1 0 -3 8 -5 18 -2 9 1 15 6 11 5 -3 9 0 9 5 0 6 -4 11 -9 11 -5
0 -8 8 -7 17 6 42 -75 88 -124 71z m53 -63 c8 -8 17 -12 19 -10 3 3 5 -2 5
-10 0 -8 -3 -12 -7 -10 -3 2 -6 -11 -6 -30 0 -19 4 -31 8 -29 4 3 8 0 8 -5 0
-6 -5 -11 -11 -11 -8 0 -7 -6 2 -17 12 -14 12 -15 0 -9 -10 7 -12 3 -6 -15 9
-31 9 -31 0 -52 -4 -10 -2 -23 5 -32 10 -12 10 -15 0 -15 -9 0 -9 -4 1 -17 12
-14 12 -16 0 -8 -11 6 -13 4 -8 -8 3 -8 0 -21 -8 -27 -15 -13 -55 -5 -55 11 0
6 4 8 8 5 5 -3 9 1 9 9 0 8 -4 12 -9 9 -12 -8 -10 10 4 24 9 9 8 15 -8 28 -13
11 -14 14 -3 11 9 -3 16 1 16 9 0 7 -4 11 -9 8 -10 -6 -11 10 -1 20 4 4 8 34
9 67 0 45 -3 62 -15 69 -15 9 -14 9 0 10 9 0 22 7 29 15 15 18 -1 20 -18 3 -8
-8 -12 -9 -12 -1 0 10 14 20 32 22 4 1 13 -6 21 -14z m-46 -110 c0 -8 -4 -12
-9 -9 -5 3 -6 10 -3 15 9 13 12 11 12 -6z m120 -27 c-3 -8 -6 -5 -6 6 -1 11 2
17 5 13 3 -3 4 -12 1 -19z m-120 -13 c0 -8 -4 -12 -9 -9 -5 3 -6 10 -3 15 9
13 12 11 12 -6z m103 -190 c-22 -27 -68 -47 -76 -33 -4 6 -3 8 3 5 12 -8 73
29 73 45 0 6 3 8 6 5 4 -4 1 -14 -6 -22z"/>
<path d="M1690 2182 c-17 -6 -11 -22 8 -22 12 0 14 -3 4 -8 -13 -9 -12 -38 2
-61 6 -9 5 -12 -2 -7 -8 5 -10 -16 -9 -69 2 -56 -1 -76 -12 -80 -11 -4 -9 -11
10 -32 13 -14 19 -23 12 -19 -9 5 -12 -3 -11 -28 1 -19 4 -33 8 -31 4 2 7 -2
7 -10 0 -8 -4 -12 -9 -9 -4 3 -8 -8 -8 -25 0 -17 -7 -34 -16 -39 -14 -8 -12
-10 10 -14 14 -3 26 -1 26 4 0 5 6 6 12 2 14 -9 157 -9 165 0 4 3 -2 15 -12
26 -10 11 -15 26 -11 36 5 14 1 15 -31 9 -79 -15 -97 -13 -76 9 8 7 9 11 11
52 1 12 9 25 18 28 8 3 12 2 9 -4 -3 -5 0 -7 8 -4 8 3 22 -2 31 -11 23 -23 20
-9 -6 28 -12 17 -17 27 -10 23 7 -4 12 -1 12 8 0 8 -5 18 -12 22 -7 5 -8 3 -3
-6 6 -10 4 -11 -6 -4 -8 4 -24 7 -36 6 -11 -2 -24 2 -28 7 -3 6 1 11 9 11 9 0
16 5 16 11 0 5 -6 7 -12 3 -8 -5 -7 0 2 11 8 10 10 16 4 12 -7 -4 -15 0 -18 9
-4 11 -2 15 7 11 8 -3 13 3 13 18 0 13 -3 22 -7 19 -4 -2 -10 3 -13 12 -4 11
-2 15 7 11 8 -3 14 1 14 9 0 7 -4 11 -9 8 -4 -3 -8 -1 -8 4 0 5 9 12 20 15 11
3 18 2 16 -2 -2 -3 21 -7 52 -8 41 -1 52 1 39 9 -10 5 -15 13 -12 19 4 5 1 9
-4 9 -6 0 -11 7 -11 15 0 11 -11 15 -37 16 -21 0 -55 1 -76 2 -20 1 -42 1 -47
-1z m67 -324 c-3 -7 -5 -2 -5 12 0 14 2 19 5 13 2 -7 2 -19 0 -25z"/>
<path d="M2130 2182 c-48 -7 -89 -63 -66 -91 8 -12 8 -13 -2 -7 -16 10 -13
-25 3 -36 6 -5 5 -8 -3 -8 -10 0 -10 -5 -1 -21 7 -13 7 -19 1 -15 -6 4 -10 -2
-9 -14 1 -11 6 -20 12 -20 5 0 3 -5 -5 -10 -8 -5 -10 -10 -5 -10 6 0 4 -4 -4
-9 -8 -5 -11 -16 -8 -26 4 -9 11 -14 15 -11 5 3 8 -8 8 -24 0 -16 -3 -27 -8
-24 -13 8 -9 -10 5 -25 10 -11 9 -12 -3 -6 -12 7 -13 6 -3 -7 7 -8 11 -17 8
-20 -3 -2 12 -20 32 -39 20 -19 32 -27 28 -19 -6 12 -5 13 6 3 18 -18 46 -16
79 4 33 19 48 62 28 74 -10 7 -8 9 5 9 10 0 16 4 13 9 -3 4 -16 7 -28 6 -13
-1 -29 -3 -36 -4 -7 0 -11 -5 -8 -9 7 -12 -40 -36 -53 -27 -6 3 -9 11 -6 16 4
5 1 9 -4 9 -6 0 -11 5 -11 11 0 5 6 7 13 3 9 -6 9 -4 -1 8 -10 13 -10 17 0 21
10 4 10 6 1 6 -15 1 -17 27 -3 36 6 4 7 -1 3 -12 -6 -16 -5 -16 10 -4 16 13
16 15 -4 29 -16 11 -18 16 -8 23 10 6 10 10 0 23 -11 13 -11 16 0 16 11 0 11
2 -1 10 -12 8 -12 10 -1 10 11 0 11 3 0 17 -11 13 -11 17 -1 20 6 3 12 9 12
14 0 6 -4 8 -8 5 -5 -3 -9 1 -9 9 0 8 3 13 6 11 3 -1 14 5 23 15 9 10 12 20 7
23 -5 2 -4 3 3 2 7 -1 17 -12 23 -24 5 -12 14 -22 20 -22 5 0 3 -5 -5 -10 -11
-8 -7 -9 15 -4 56 12 60 26 20 71 -37 43 -54 51 -95 45z m0 -72 c0 -5 -5 -10
-11 -10 -5 0 -7 5 -4 10 3 6 8 10 11 10 2 0 4 -4 4 -10z m109 -21 c-22 -13
-31 -11 -17 5 7 8 17 12 22 9 4 -3 2 -9 -5 -14z m1 -289 c0 -10 -51 -60 -62
-60 -3 0 8 15 25 34 37 39 37 39 37 26z"/>
<path d="M2338 2172 c-34 -20 -51 -55 -35 -72 9 -10 9 -11 0 -6 -9 5 -13 0
-13 -14 0 -14 4 -19 13 -14 8 5 8 2 -2 -9 -11 -14 -11 -17 0 -17 11 0 11 -2
-1 -10 -13 -9 -13 -11 0 -20 11 -7 11 -10 2 -10 -8 0 -10 -5 -5 -12 11 -19 13
-39 2 -32 -5 3 -9 -2 -9 -10 0 -9 -6 -16 -12 -16 -8 0 -5 -7 6 -15 11 -8 16
-15 10 -15 -5 0 -2 -5 6 -10 8 -5 10 -10 5 -10 -6 0 -11 -9 -11 -20 0 -11 5
-20 11 -20 5 0 3 -5 -5 -10 -9 -6 -11 -13 -5 -17 6 -5 11 -15 13 -23 4 -18 55
-61 62 -52 3 4 11 8 19 10 12 3 12 0 1 -12 -27 -34 3 -14 46 29 52 53 58 52
12 -2 -29 -33 -30 -36 -8 -22 35 22 57 68 39 80 -10 6 -11 9 -1 9 6 0 12 5 12
11 0 5 -4 7 -10 4 -5 -3 -10 -1 -10 4 0 6 6 11 13 11 9 0 9 2 0 8 -13 8 -12
37 2 49 4 4 5 -3 2 -17 -6 -23 -5 -24 8 -7 11 16 11 21 -3 37 -8 11 -17 29
-19 42 -2 18 -1 20 7 8 7 -12 9 -10 7 7 0 12 -5 19 -9 17 -4 -3 -8 0 -8 5 0 6
5 11 10 11 6 0 10 5 10 11 0 5 -4 7 -10 4 -5 -3 -10 -2 -10 4 0 5 6 12 13 14
10 4 10 6 0 6 -7 1 -13 6 -13 12 0 5 4 8 8 5 4 -2 8 6 8 19 0 13 -3 22 -7 19
-4 -2 -9 5 -12 15 -11 43 -88 69 -129 43z m65 -56 c11 -12 14 -45 13 -155 -1
-148 -9 -177 -43 -155 -21 13 -28 64 -11 75 8 6 9 9 2 9 -7 0 -14 9 -17 20 -3
13 0 20 9 20 8 0 14 7 14 15 0 8 -4 15 -10 15 -15 0 -12 40 3 41 10 0 10 2 0
6 -7 2 -13 13 -13 24 0 10 6 19 13 20 10 0 10 2 0 6 -16 6 -17 45 -1 61 16 16
23 15 41 -2z"/>
<path d="M2365 2099 c-10 -30 -2 -32 12 -3 6 13 7 24 3 24 -5 0 -12 -9 -15
-21z"/>
<path d="M2361 1854 c0 -11 3 -14 6 -6 3 7 2 16 -1 19 -3 4 -6 -2 -5 -13z"/>
<path d="M2548 2163 c8 -13 10 -23 6 -23 -5 0 -2 -5 6 -10 10 -6 11 -10 3 -10
-7 0 -13 -6 -13 -14 0 -8 6 -17 13 -19 10 -4 10 -6 0 -6 -7 -1 -13 -8 -13 -16
0 -8 6 -15 13 -15 9 0 9 -2 -1 -9 -8 -4 -14 -12 -14 -16 0 -4 6 -12 14 -16 7
-5 8 -9 2 -9 -6 0 -11 -7 -11 -15 0 -8 4 -15 9 -15 5 0 0 -10 -11 -22 -19 -20
-20 -44 0 -33 5 3 6 -1 3 -9 -4 -10 -1 -16 7 -16 12 0 12 -2 0 -9 -9 -6 -10
-11 -2 -15 7 -5 7 -13 -2 -28 -9 -16 -9 -22 1 -25 6 -3 10 -9 7 -13 -3 -5 6
-20 20 -34 18 -18 34 -25 51 -22 14 3 22 1 19 -5 -4 -5 -11 -6 -17 -3 -6 4 -8
2 -4 -4 9 -14 65 2 89 27 10 10 21 36 23 57 2 28 1 35 -6 24 -8 -12 -10 -11
-10 5 0 11 9 31 19 44 18 24 18 25 -3 42 -11 10 -15 18 -8 19 6 0 12 5 12 11
0 5 -6 7 -12 3 -10 -6 -10 -4 0 7 6 7 12 18 12 24 0 5 -5 3 -10 -5 -8 -13 -10
-13 -10 2 0 9 6 19 13 22 9 5 9 7 -1 12 -10 5 -10 9 0 22 10 12 10 14 1 8 -7
-4 -13 -2 -13 3 0 6 5 11 10 11 6 0 10 5 10 11 0 5 -6 7 -12 3 -9 -5 -9 -2 1
9 10 13 10 17 1 17 -9 0 -9 4 1 17 8 10 9 14 2 10 -8 -5 -11 1 -8 20 3 26 1
28 -36 30 -44 1 -46 -2 -21 -30 9 -11 11 -17 5 -13 -7 4 -13 2 -13 -3 0 -6 6
-11 13 -11 9 0 9 -2 -1 -9 -8 -4 -14 -12 -14 -16 0 -4 6 -12 14 -16 7 -5 8 -9
2 -9 -12 0 -12 -29 1 -49 5 -10 4 -12 -3 -7 -7 4 -12 3 -12 -3 0 -5 5 -13 10
-16 8 -5 7 -11 -1 -21 -9 -11 -8 -14 2 -14 12 0 12 -2 1 -9 -8 -4 -14 -12 -14
-16 0 -4 6 -12 14 -16 7 -5 8 -9 2 -9 -12 0 -12 -29 1 -49 5 -10 4 -12 -3 -7
-15 9 -16 -6 -2 -20 16 -16 -24 -47 -49 -39 -12 3 -21 12 -22 18 -4 59 0 336
5 348 6 12 -1 15 -37 15 -44 -1 -44 -1 -29 -23z m195 -258 c-3 -9 -8 -14 -10
-11 -3 3 -2 9 2 15 9 16 15 13 8 -4z m-33 -140 c-13 -14 -27 -25 -32 -25 -5 0
3 13 19 29 34 35 46 31 13 -4z"/>
<path d="M2750 2170 c-12 -23 -5 -26 16 -6 8 9 10 17 5 21 -6 3 -15 -4 -21
-15z"/>
<path d="M2810 2183 c0 -3 10 -14 23 -25 12 -11 16 -17 10 -13 -8 3 -13 0 -13
-9 0 -8 6 -17 13 -19 9 -4 9 -6 -1 -6 -7 -1 -10 -5 -7 -11 3 -5 1 -10 -6 -10
-7 0 -4 -7 7 -16 10 -8 13 -13 7 -9 -8 4 -13 0 -13 -9 0 -8 6 -17 13 -19 10
-4 10 -6 0 -6 -7 -1 -13 -9 -13 -19 0 -10 6 -24 13 -31 10 -11 10 -13 0 -7 -9
5 -13 0 -13 -13 0 -11 -5 -23 -10 -26 -7 -4 -7 -11 -2 -18 16 -21 23 -67 10
-67 -6 0 -3 -7 8 -16 10 -8 13 -13 7 -9 -8 4 -13 0 -13 -9 0 -9 6 -16 13 -16
8 0 9 -2 1 -8 -6 -4 -14 -17 -18 -29 -4 -13 -12 -23 -17 -23 -6 0 -7 -5 -3
-11 4 -8 9 -8 13 -1 4 6 22 13 41 17 24 4 30 2 20 -4 -8 -5 -19 -7 -25 -4 -5
4 -7 3 -3 -2 10 -10 78 -13 78 -2 0 4 -6 7 -14 7 -15 0 -28 23 -31 57 -1 12 3
19 9 17 7 -3 12 5 12 16 0 22 -12 27 -18 9 -2 -7 -4 13 -4 43 1 34 5 54 11 52
6 -3 11 5 11 16 0 22 -12 27 -18 8 -2 -6 -4 18 -4 55 1 37 4 67 9 67 4 0 7 -4
7 -8 0 -4 17 -25 38 -47 20 -21 32 -36 26 -32 -7 4 -11 -2 -11 -18 0 -16 4
-22 11 -18 6 4 5 -1 -3 -10 -11 -14 -11 -17 0 -17 12 0 12 -2 1 -9 -8 -4 -14
-12 -14 -16 0 -4 6 -12 14 -16 9 -6 9 -9 1 -9 -14 0 -14 -39 1 -59 8 -11 8
-13 -1 -7 -7 4 -13 2 -13 -3 0 -6 6 -11 13 -11 9 0 9 -2 -1 -9 -8 -4 -13 -11
-13 -15 1 -3 1 -7 0 -8 -7 -23 -4 -38 7 -42 8 -3 13 0 11 6 -1 7 8 13 21 14
12 1 22 -3 22 -8 0 -6 -7 -7 -16 -4 -8 3 -12 2 -9 -4 7 -11 53 -6 64 6 3 4 -2
4 -12 1 -16 -6 -18 -3 -12 24 5 21 4 29 -3 25 -11 -7 -10 19 1 30 4 4 7 12 7
18 0 6 -4 5 -9 -3 -6 -9 -8 -5 -8 14 0 19 2 23 8 14 6 -10 9 -6 9 13 0 15 5
30 10 33 6 4 1 14 -12 25 -13 11 -17 19 -10 20 6 0 12 10 11 23 0 21 -1 21 -9
2 -8 -17 -9 -17 -7 7 1 15 5 24 9 22 4 -3 8 2 8 11 0 9 -4 14 -8 11 -5 -3 -9
10 -9 29 0 19 4 32 9 29 4 -3 8 2 8 11 0 9 -4 14 -8 11 -5 -3 -9 1 -9 9 0 8 4
12 9 9 4 -3 8 4 8 15 0 11 5 23 10 26 6 3 10 12 9 18 0 9 -2 8 -6 -1 -2 -6
-10 -9 -16 -5 -15 10 -87 11 -87 1 0 -3 7 -14 16 -22 8 -9 11 -16 5 -16 -6 0
-11 -7 -11 -16 0 -9 5 -12 12 -8 7 5 8 3 3 -6 -6 -10 -18 -2 -45 30 -30 35
-44 44 -74 46 -20 1 -36 -1 -36 -3z m207 -35 c-3 -8 -6 -5 -6 6 -1 11 2 17 5
13 3 -3 4 -12 1 -19z m6 -248 c-3 -12 -8 -19 -11 -16 -5 6 5 36 12 36 2 0 2
-9 -1 -20z"/>
<path d="M3114 2178 c-3 -4 -2 -13 2 -20 4 -6 3 -8 -4 -4 -12 7 -26 -29 -17
-44 3 -5 1 -10 -4 -10 -6 0 -11 -5 -11 -11 0 -8 54 15 70 31 11 11 27 8 27 -5
0 -8 -4 -12 -9 -9 -4 3 -8 1 -8 -5 0 -5 8 -12 18 -14 13 -4 13 -5 2 -6 -13 -1
-15 -13 -13 -57 1 -31 4 -63 7 -71 3 -8 2 -12 -3 -9 -5 3 -11 -1 -15 -9 -3 -8
-1 -17 5 -21 6 -3 7 -19 4 -34 -5 -22 -2 -29 12 -33 13 -3 14 -5 2 -6 -16 -1
-18 -48 -4 -72 5 -7 4 -10 -1 -6 -6 3 -15 -3 -22 -13 -15 -24 2 -37 24 -19 21
17 42 20 51 7 4 -7 1 -8 -8 -3 -8 5 -11 4 -6 0 8 -9 47 -15 47 -7 0 3 -7 10
-15 16 -12 9 -13 18 -5 46 7 24 7 37 -2 45 -7 7 -9 7 -5 -1 3 -6 2 -24 -2 -40
-6 -21 -8 -9 -6 41 2 39 7 81 11 94 4 15 3 22 -2 18 -6 -3 -10 26 -10 73 0 44
2 77 4 75 7 -6 30 19 25 28 -2 4 3 7 12 7 9 0 14 -4 11 -9 -4 -5 1 -8 9 -7 18
3 32 16 17 16 -7 0 -12 5 -12 11 0 5 6 7 13 4 6 -4 3 1 -7 9 -13 11 -15 16 -6
16 7 0 10 3 7 7 -10 10 -177 11 -183 1z m11 -58 c-3 -5 -11 -10 -16 -10 -6 0
-7 5 -4 10 3 6 11 10 16 10 6 0 7 -4 4 -10z m115 0 c0 -5 -5 -10 -11 -10 -5 0
-7 5 -4 10 3 6 8 10 11 10 2 0 4 -4 4 -10z m-70 -380 c0 -5 -5 -10 -11 -10 -5
0 -7 5 -4 10 3 6 8 10 11 10 2 0 4 -4 4 -10z"/>
<path d="M3330 2182 c0 -1 6 -13 14 -25 7 -12 23 -65 36 -117 21 -92 27 -128
37 -235 3 -27 10 -53 17 -57 8 -6 8 -8 -1 -8 -8 0 -13 -13 -13 -29 0 -17 -5
-33 -11 -37 -8 -4 -7 -9 2 -15 11 -7 10 -9 -3 -9 -10 0 -18 -4 -18 -8 0 -4 9
-8 20 -8 11 0 20 7 20 16 0 13 1 13 10 0 6 -10 10 -11 10 -2 0 15 32 16 47 1
6 -6 19 -9 29 -6 15 4 14 5 -4 6 -21 1 -23 5 -18 34 5 24 4 27 -3 12 -9 -18
-10 -17 -12 10 -5 73 2 150 15 164 8 9 16 30 19 46 3 17 12 57 20 90 8 33 18
77 22 98 3 21 15 43 25 50 11 6 20 19 20 27 0 13 -1 13 -11 0 -6 -8 -12 -11
-15 -5 -2 6 -25 10 -52 9 l-47 -1 -6 -41 c-3 -24 -1 -47 5 -53 8 -9 8 -10 0
-6 -13 8 -24 -14 -24 -46 0 -18 2 -19 10 -7 8 13 10 12 10 -2 0 -19 -15 -24
-24 -10 -10 17 -15 62 -5 57 5 -4 9 -1 9 4 0 6 -7 11 -15 11 -8 0 -15 7 -15
15 0 8 4 15 9 15 6 0 9 8 9 18 0 9 2 24 6 32 5 12 -5 15 -59 15 -36 0 -65 -1
-65 -3z m106 -32 c0 -11 -4 -20 -8 -20 -4 0 -8 9 -8 20 0 11 4 20 8 20 4 0 8
-9 8 -20z m136 8 c-7 -7 -12 -20 -12 -30 0 -10 -4 -18 -10 -18 -5 0 -7 7 -5
15 3 8 7 22 10 30 2 8 10 15 17 15 9 0 9 -3 0 -12z m-81 -51 c-10 -9 -11 -8
-5 6 3 10 9 15 12 12 3 -3 0 -11 -7 -18z m48 -65 c-6 -29 -14 -54 -19 -57 -5
-3 -5 9 0 27 4 18 11 46 15 62 3 15 8 26 11 24 2 -3 -1 -28 -7 -56z m-141 -7
c-3 -3 -9 2 -12 12 -6 14 -5 15 5 6 7 -7 10 -15 7 -18z m115 -112 c-3 -24 -9
-40 -14 -38 -4 3 -4 19 1 35 5 17 6 30 4 30 -3 0 -2 5 1 11 12 18 14 6 8 -38z
m-86 -25 c-3 -8 -6 -5 -6 6 -1 11 2 17 5 13 3 -3 4 -12 1 -19z"/>
<path d="M2620 2160 c-8 -15 -8 -25 0 -38 11 -16 11 -15 6 2 -4 11 1 27 10 37
10 11 12 19 6 19 -6 0 -16 -9 -22 -20z"/>
<path d="M627 2086 c4 -20 -1 -24 -39 -33 -23 -6 -33 -11 -21 -12 37 -2 73 17
73 38 0 11 -4 22 -9 25 -4 3 -6 -5 -4 -18z"/>
<path d="M2615 2091 c-3 -5 -2 -12 3 -15 5 -3 9 1 9 9 0 17 -3 19 -12 6z"/>
<path d="M1251 2064 c0 -11 3 -14 6 -6 3 7 2 16 -1 19 -3 4 -6 -2 -5 -13z"/>
<path d="M3233 2037 l-1 -42 8 35 c5 19 6 38 2 42 -4 4 -8 -12 -9 -35z"/>
<path d="M3021 2054 c0 -11 3 -14 6 -6 3 7 2 16 -1 19 -3 4 -6 -2 -5 -13z"/>
<path d="M1001 2025 c-33 -49 -22 -52 12 -4 16 21 25 39 20 39 -4 0 -19 -16
-32 -35z"/>
<path d="M2616 2047 c3 -10 9 -15 12 -12 3 3 0 11 -7 18 -10 9 -11 8 -5 -6z"/>
<path d="M2894 2020 c0 -17 3 -30 7 -30 8 0 6 47 -3 55 -2 3 -4 -9 -4 -25z"/>
<path d="M2615 2011 c-3 -5 -2 -12 3 -15 5 -3 9 1 9 9 0 17 -3 19 -12 6z"/>
<path d="M3233 1975 c0 -8 4 -12 9 -9 5 3 6 10 3 15 -9 13 -12 11 -12 -6z"/>
<path d="M1252 1960 c0 -14 2 -19 5 -12 2 6 2 18 0 25 -3 6 -5 1 -5 -13z"/>
<path d="M2616 1967 c3 -10 9 -15 12 -12 3 3 0 11 -7 18 -10 9 -11 8 -5 -6z"/>
<path d="M561 1944 c0 -11 3 -14 6 -6 3 7 2 16 -1 19 -3 4 -6 -2 -5 -13z"/>
<path d="M2615 1931 c-3 -5 -2 -12 3 -15 5 -3 9 1 9 9 0 17 -3 19 -12 6z"/>
<path d="M1115 1909 c-11 -17 1 -21 15 -4 8 9 8 15 2 15 -6 0 -14 -5 -17 -11z"/>
<path d="M2894 1895 c0 -14 4 -25 8 -25 4 0 7 9 5 20 -5 29 -13 33 -13 5z"/>
<path d="M3236 1904 c-9 -24 -7 -28 9 -14 17 14 20 30 6 30 -5 0 -12 -7 -15
-16z"/>
<path d="M2616 1887 c3 -10 9 -15 12 -12 3 3 0 11 -7 18 -10 9 -11 8 -5 -6z"/>
<path d="M475 1860 c3 -5 8 -10 11 -10 2 0 4 5 4 10 0 6 -5 10 -11 10 -5 0 -7
-4 -4 -10z"/>
<path d="M3513 1858 c-13 -15 -24 -98 -13 -98 4 0 7 19 8 42 1 23 7 45 14 49
7 5 10 11 7 14 -4 3 -11 0 -16 -7z"/>
<path d="M2615 1840 c3 -5 8 -10 11 -10 2 0 4 5 4 10 0 6 -5 10 -11 10 -5 0
-7 -4 -4 -10z"/>
<path d="M630 1780 c0 -29 3 -51 6 -47 8 7 7 87 0 95 -3 3 -6 -19 -6 -48z"/>
<path d="M2893 1785 c0 -8 4 -15 9 -15 4 0 8 4 8 9 0 6 -4 12 -8 15 -5 3 -9
-1 -9 -9z"/>
<path d="M3495 1741 c-3 -5 -1 -12 5 -16 5 -3 10 1 10 9 0 18 -6 21 -15 7z"/>
<path d="M620 1710 c0 -17 -44 -56 -76 -68 -18 -6 -22 -11 -11 -11 30 -2 76
28 92 59 9 17 11 30 5 30 -5 0 -10 -5 -10 -10z"/>
<path d="M3465 1640 c3 -5 10 -10 16 -10 5 0 9 5 9 10 0 6 -7 10 -16 10 -8 0
-12 -4 -9 -10z"/>
<path d="M1580 1620 c0 -5 5 -10 11 -10 15 0 4 -133 -11 -138 -23 -8 -8 -22
25 -22 19 0 35 5 35 10 0 6 -5 10 -11 10 -7 0 -9 14 -5 38 3 20 5 46 6 57 0
12 11 -2 25 -33 15 -32 30 -52 37 -50 7 3 23 26 35 51 13 26 24 47 25 47 2 0
4 -25 6 -55 1 -32 -2 -55 -8 -55 -5 0 -10 -4 -10 -10 0 -5 18 -10 40 -10 22 0
40 5 40 10 0 6 -7 10 -15 10 -9 0 -15 9 -16 23 0 12 -3 43 -5 70 -4 30 -1 47
5 47 6 0 11 5 11 10 0 6 -12 10 -28 10 -24 0 -31 -7 -51 -55 -13 -30 -27 -55
-30 -55 -3 0 -17 25 -30 55 -21 48 -27 55 -52 55 -16 0 -29 -4 -29 -10z"/>
<path d="M1927 1598 c-7 -18 -22 -54 -32 -80 -10 -27 -22 -48 -26 -48 -5 0 -9
-4 -9 -10 0 -5 16 -10 35 -10 33 0 48 14 24 22 -5 2 -7 11 -3 21 5 14 15 17
43 15 32 -3 36 -6 34 -30 -2 -26 1 -28 33 -28 33 0 47 14 22 22 -6 2 -26 38
-43 79 -35 85 -57 98 -78 47z m48 -45 c5 -20 3 -23 -19 -23 -24 0 -24 2 -14
31 11 32 21 29 33 -8z"/>
<path d="M2100 1621 c0 -5 6 -11 13 -13 18 -7 19 -138 0 -138 -7 0 -13 -4 -13
-10 0 -6 32 -10 75 -10 73 0 75 1 75 25 0 16 -6 25 -15 25 -8 0 -14 -6 -12
-12 1 -8 -11 -14 -30 -16 -18 -2 -33 0 -34 5 -7 58 -3 126 8 130 27 10 12 23
-27 23 -22 0 -40 -4 -40 -9z"/>
<path d="M2280 1605 c0 -16 6 -25 15 -25 8 0 15 7 15 15 0 8 9 15 20 15 16 0
20 -7 22 -32 3 -65 -1 -103 -12 -106 -25 -9 -7 -22 30 -22 22 0 40 5 40 10 0
6 -6 10 -13 10 -9 0 -13 19 -12 68 0 62 2 67 23 70 15 2 22 -2 22 -13 0 -9 6
-15 13 -12 6 2 12 12 12 23 0 17 -9 19 -87 22 l-88 3 0 -26z"/>
<path d="M910 1561 c0 -34 95 -199 107 -187 3 3 -6 23 -20 43 -14 21 -37 64
-51 96 -24 53 -36 69 -36 48z"/>
<path d="M3082 1533 c-6 -21 -27 -63 -46 -93 -35 -56 -40 -84 -6 -40 22 29 80
145 80 160 0 24 -18 7 -28 -27z"/>
<path d="M518 1393 c5 -10 22 -45 37 -78 116 -244 322 -479 560 -637 149 -99
424 -214 555 -233 24 -4 47 -8 51 -10 29 -19 409 -27 514 -12 538 79 1018 432
1239 912 10 22 23 48 28 58 6 12 5 17 -7 17 -9 0 -26 -26 -43 -62 -136 -299
-420 -591 -721 -742 -396 -199 -862 -225 -1278 -70 -385 142 -721 450 -885
812 -17 36 -34 62 -43 62 -12 0 -13 -5 -7 -17z"/>
<path d="M602 1383 c180 -414 588 -751 1041 -858 150 -35 157 -36 342 -40 135
-2 194 1 284 17 476 82 893 385 1114 810 46 89 47 93 27 96 -29 5 -33 0 -78
-86 -54 -105 -153 -240 -240 -330 -223 -229 -471 -366 -786 -434 -147 -32
-446 -32 -592 0 -195 42 -365 112 -519 212 -223 146 -420 365 -522 580 -24 51
-32 60 -55 60 -26 0 -27 -1 -16 -27z"/>
<path d="M861 1358 c137 -233 330 -415 563 -531 86 -43 250 -99 326 -112 19
-4 58 -10 85 -15 90 -15 293 -10 404 10 380 69 706 294 906 625 39 65 42 75
21 75 -8 0 -26 -21 -41 -47 -78 -135 -219 -292 -350 -390 -130 -97 -376 -207
-510 -228 -22 -3 -58 -9 -80 -13 -66 -12 -325 -7 -400 7 -361 69 -690 294
-874 599 -29 48 -49 72 -62 72 -16 0 -15 -6 12 -52z"/>
<path d="M736 1381 c-10 -16 5 -42 23 -39 21 4 21 42 -1 46 -9 2 -19 -1 -22
-7z"/>
<path d="M3243 1374 c-3 -8 -1 -20 5 -26 15 -15 43 8 35 28 -7 19 -32 18 -40
-2z"/>
<path d="M1034 1333 c14 -55 31 -77 71 -93 22 -8 51 -25 63 -37 33 -34 27 -39
-9 -9 -24 20 -41 26 -70 24 -43 -2 -43 -2 -29 -29 18 -33 62 -49 103 -38 42
11 46 16 51 61 4 34 -17 88 -35 88 -5 0 -16 -14 -23 -32 -12 -29 -14 -30 -20
-10 -10 32 -45 71 -78 88 l-31 16 7 -29z m109 -170 c-7 -2 -19 -2 -25 0 -7 3
-2 5 12 5 14 0 19 -2 13 -5z"/>
<path d="M2938 1332 c-22 -15 -43 -42 -49 -62 -12 -34 -12 -34 -21 -10 -18 48
-29 53 -49 23 -38 -57 0 -133 66 -133 32 0 85 37 85 60 0 16 -78 12 -108 -7
l-27 -17 19 21 c10 12 31 25 46 28 30 7 80 50 80 69 0 6 3 21 6 34 8 29 -3 27
-48 -6z m-41 -168 c-3 -3 -12 -4 -19 -1 -8 3 -5 6 6 6 11 1 17 -2 13 -5z"/>
<path d="M784 1295 c-7 -18 3 -35 21 -35 18 0 26 15 19 34 -8 20 -33 21 -40 1z"/>
<path d="M3201 1301 c-19 -12 -6 -43 16 -39 10 2 18 12 18 22 0 22 -14 29 -34
17z"/>
<path d="M1995 1280 c-8 -27 10 -49 26 -33 13 13 8 45 -8 50 -6 2 -14 -6 -18
-17z"/>
<path d="M2306 1253 c-6 -14 -5 -15 5 -6 7 7 10 15 7 18 -3 3 -9 -2 -12 -12z"/>
<path d="M1963 1235 c-3 -9 2 -22 13 -31 13 -9 14 -13 4 -12 -8 2 -14 -1 -15
-7 0 -5 -4 -16 -9 -24 -6 -10 -5 -12 2 -7 6 4 20 1 31 -6 16 -10 25 -9 46 2
26 14 30 48 5 42 -10 -2 -9 3 5 17 15 17 16 24 6 34 -18 18 -40 -16 -35 -53 3
-15 0 -31 -5 -35 -7 -4 -10 8 -9 33 1 41 -7 62 -23 62 -5 0 -12 -7 -16 -15z"/>
<path d="M834 1215 c-4 -9 -2 -21 4 -27 15 -15 44 -1 40 19 -4 23 -36 29 -44
8z"/>
<path d="M1232 1202 c-11 -32 -1 -66 25 -81 10 -6 14 -11 9 -11 -5 0 -17 6
-25 14 -20 18 -48 22 -83 13 -36 -10 -35 -17 7 -46 27 -18 42 -22 69 -17 19 4
39 13 46 21 19 23 17 91 -5 115 -24 27 -31 25 -43 -8z m-8 -114 c-3 -4 -11 -5
-19 -1 -21 7 -19 12 4 10 11 0 18 -5 15 -9z"/>
<path d="M1730 1216 c0 -7 7 -19 15 -26 12 -10 13 -15 4 -21 -18 -11 9 -42 29
-34 12 4 12 3 3 -9 -9 -11 -8 -17 6 -28 10 -7 19 -20 21 -28 2 -8 10 -19 18
-23 8 -5 12 -12 9 -17 -3 -5 5 -16 17 -24 12 -9 19 -16 15 -16 -4 0 -3 -9 3
-20 24 -44 97 -9 79 38 -5 13 -14 20 -20 16 -7 -4 -9 0 -5 13 4 12 1 25 -8 32
-13 11 -16 8 -22 -15 -5 -20 -2 -30 11 -41 11 -7 16 -13 12 -13 -4 0 -2 -10 4
-22 12 -23 12 -23 -10 -4 -11 11 -21 25 -21 32 0 7 -10 20 -22 28 -15 11 -18
16 -8 16 10 1 7 7 -9 21 -21 17 -22 22 -10 29 10 7 15 4 19 -12 7 -27 26 -34
33 -13 7 18 -1 45 -14 45 -5 0 -14 12 -19 26 -7 17 -16 24 -25 21 -9 -4 -12
-1 -9 8 3 8 -1 21 -9 30 -21 20 -27 19 -27 -4 0 -31 11 -51 28 -51 8 0 12 -3
9 -7 -4 -3 -2 -12 4 -20 8 -9 8 -13 1 -13 -15 0 -58 62 -54 78 4 17 -16 42
-34 42 -8 0 -14 -6 -14 -14z"/>
<path d="M2250 1215 c-7 -8 -10 -21 -7 -30 4 -8 -3 -21 -16 -30 -12 -8 -17
-15 -12 -15 4 0 -2 -11 -15 -25 -13 -14 -20 -25 -16 -25 5 0 -2 -9 -15 -20
-15 -12 -19 -19 -10 -20 8 0 2 -9 -13 -21 -14 -11 -24 -24 -21 -28 2 -5 -3
-15 -13 -24 -16 -15 -17 -14 -17 11 0 36 -19 40 -23 6 -6 -44 57 -63 78 -24 6
11 8 20 5 20 -3 0 3 9 13 19 34 39 42 50 42 66 0 8 6 15 14 15 18 0 29 27 13
34 -7 2 -5 5 4 5 23 1 49 33 32 38 -10 4 -9 10 2 26 8 12 15 25 15 29 0 14
-27 9 -40 -7z"/>
<path d="M2747 1213 c-17 -20 -20 -33 -18 -80 1 -25 8 -36 31 -48 41 -21 64
-19 100 11 34 29 31 39 -16 48 -23 5 -37 1 -58 -15 -15 -12 -30 -19 -33 -15
-4 3 -1 6 5 6 22 0 40 52 30 82 -12 33 -19 35 -41 11z m63 -123 c0 -5 -7 -7
-15 -4 -8 4 -15 8 -15 10 0 2 7 4 15 4 8 0 15 -4 15 -10z"/>
<path d="M3147 1223 c-15 -14 -7 -43 12 -43 26 0 36 17 21 35 -14 16 -23 19
-33 8z"/>
<path d="M2193 1193 c-4 -10 -13 -24 -20 -31 -7 -7 -13 -20 -13 -28 0 -8 -7
-14 -15 -14 -13 0 -20 -14 -12 -23 1 -1 -8 -13 -20 -27 -27 -28 -28 -34 -9
-49 12 -10 17 -9 24 6 5 10 7 24 5 31 -3 7 1 11 8 10 8 -2 15 7 17 20 2 12 7
20 12 17 12 -8 32 33 24 48 -4 6 -4 9 1 5 12 -11 35 11 35 33 0 24 -28 25 -37
2z"/>
<path d="M1323 1133 c-9 -36 -5 -54 15 -71 15 -11 14 -12 -6 -2 -14 7 -40 9
-63 5 -49 -8 -49 -30 -1 -56 62 -33 124 10 116 79 -5 35 -28 72 -45 72 -5 0
-12 -12 -16 -27z m-6 -119 c-3 -3 -12 -4 -19 -1 -8 3 -5 6 6 6 11 1 17 -2 13
-5z"/>
<path d="M2652 1136 c-22 -29 -23 -85 -3 -110 21 -26 76 -30 110 -10 17 10 31
24 31 31 0 18 -69 28 -92 14 -18 -11 -18 -10 -5 16 15 29 9 74 -10 80 -6 2
-20 -7 -31 -21z m63 -116 c3 -5 1 -10 -4 -10 -6 0 -11 5 -11 10 0 6 2 10 4 10
3 0 8 -4 11 -10z"/>
<path d="M894 1135 c-8 -19 12 -36 33 -28 19 7 12 37 -10 41 -9 2 -20 -4 -23
-13z"/>
<path d="M1969 1148 c-5 -25 -4 -34 4 -45 6 -9 5 -13 -2 -13 -16 0 -10 -32 9
-48 8 -8 9 -11 3 -7 -9 4 -13 -2 -13 -18 0 -25 16 -37 50 -37 21 0 29 10 35
40 2 11 -2 20 -8 20 -8 0 -9 2 -1 8 16 10 13 42 -3 42 -7 0 -17 -10 -22 -22
-8 -22 -8 -22 -19 -2 -7 14 -8 24 -1 31 6 6 3 18 -10 34 -11 13 -21 21 -22 17z
m56 -125 c-3 -8 -5 -20 -5 -26 0 -15 -20 14 -20 29 0 6 7 11 15 11 10 0 14 -6
10 -14z"/>
<path d="M2030 1134 c-8 -9 -15 -25 -17 -35 -3 -18 -2 -19 22 -3 27 18 29 22
16 42 -6 10 -11 10 -21 -4z"/>
<path d="M3083 1134 c-3 -8 -1 -20 6 -27 14 -14 47 15 37 32 -10 16 -36 13
-43 -5z"/>
<path d="M1406 1076 c-7 -29 2 -56 23 -74 13 -10 10 -10 -14 -1 -35 12 -28 13
-65 -6 -35 -18 -31 -31 17 -51 31 -14 37 -13 73 7 35 20 39 26 36 53 -2 17 -4
36 -5 42 -1 13 -39 54 -50 54 -5 0 -12 -11 -15 -24z m51 -48 c-3 -8 -6 -5 -6
6 -1 11 2 17 5 13 3 -3 4 -12 1 -19z m-40 -74 c-3 -3 -12 -4 -19 -1 -8 3 -5 6
6 6 11 1 17 -2 13 -5z"/>
<path d="M2570 1085 c-6 -8 -8 -20 -4 -26 4 -8 3 -9 -4 -5 -12 7 -15 -5 -14
-57 0 -34 -1 -33 44 -51 32 -14 38 -13 69 3 18 10 35 23 36 28 5 15 -62 36
-88 28 -20 -7 -20 -6 -4 18 29 45 -2 102 -35 62z"/>
<path d="M954 1069 c-10 -17 23 -46 37 -32 7 7 9 19 6 27 -7 18 -33 21 -43 5z"/>
<path d="M3023 1069 c-13 -13 -6 -39 11 -39 22 0 37 22 25 37 -14 16 -22 16
-36 2z"/>
<path d="M1496 1044 c-11 -29 -6 -53 16 -74 l22 -21 -24 4 c-24 4 -90 -20 -90
-33 0 -7 32 -24 64 -34 20 -7 81 26 89 49 7 17 -8 71 -24 92 -22 26 -46 34
-53 17z m29 -134 c-3 -5 -14 -10 -23 -9 -14 0 -13 2 3 9 27 11 27 11 20 0z"/>
<path d="M2480 1031 c-17 -16 -30 -36 -30 -44 0 -9 -3 -22 -6 -31 -8 -22 43
-66 77 -66 30 0 79 19 79 30 0 14 -73 40 -94 34 -21 -6 -21 -6 2 15 15 15 21
32 20 52 -3 43 -14 45 -48 10z m3 -26 c-3 -9 -8 -14 -10 -11 -3 3 -2 9 2 15 9
16 15 13 8 -4z m37 -95 c8 -5 11 -10 5 -10 -5 0 -17 5 -25 10 -8 5 -10 10 -5
10 6 0 17 -5 25 -10z"/>
<path d="M1590 985 c0 -21 7 -41 20 -53 20 -19 20 -19 -9 -19 -32 0 -88 -38
-71 -48 48 -29 106 -21 140 20 19 23 -3 89 -39 114 -38 28 -41 27 -41 -14z
m58 -30 c-3 -3 -9 2 -12 12 -6 14 -5 15 5 6 7 -7 10 -15 7 -18z m-18 -85 c-8
-5 -19 -10 -25 -10 -5 0 -3 5 5 10 8 5 20 10 25 10 6 0 3 -5 -5 -10z"/>
<path d="M2381 993 c-18 -17 -33 -43 -36 -64 -6 -32 -3 -39 22 -57 16 -11 35
-21 43 -23 20 -4 79 11 85 21 8 14 -64 53 -87 47 l-20 -6 21 23 c21 23 30 86
11 86 -5 0 -23 -12 -39 -27z m-1 -33 c-6 -11 -13 -20 -16 -20 -2 0 0 9 6 20 6
11 13 20 16 20 2 0 0 -9 -6 -20z m35 -90 c3 -5 2 -10 -4 -10 -5 0 -13 5 -16
10 -3 6 -2 10 4 10 5 0 13 -4 16 -10z"/>
<path d="M1024 995 c-8 -19 12 -36 33 -28 19 7 12 37 -10 41 -9 2 -20 -4 -23
-13z"/>
<path d="M2950 991 c0 -26 17 -36 35 -21 18 15 8 40 -16 40 -12 0 -19 -7 -19
-19z"/>
<path d="M1690 950 c0 -17 9 -39 20 -50 l20 -20 -22 0 c-26 0 -87 -44 -76 -55
4 -4 27 -10 51 -12 36 -4 51 -1 76 18 17 13 31 32 31 43 0 32 -37 85 -66 96
-35 14 -34 14 -34 -20z m69 -34 c-3 -3 -11 5 -18 17 -13 21 -12 21 5 5 10 -10
16 -20 13 -22z m-9 -71 c0 -2 -10 -9 -22 -15 -22 -11 -22 -10 -4 4 21 17 26
19 26 11z"/>
<path d="M2293 970 c-25 -10 -63 -65 -63 -92 0 -23 56 -68 85 -68 13 0 36 5
52 11 l28 11 -28 24 c-15 13 -40 24 -54 24 l-27 0 22 20 c13 12 22 33 22 50 0
32 -3 34 -37 20z m-15 -40 c-7 -10 -14 -17 -17 -15 -4 4 18 35 25 35 2 0 -1
-9 -8 -20z m23 -98 c-7 -2 -18 1 -23 6 -8 8 -4 9 13 5 13 -4 18 -8 10 -11z"/>
<path d="M2011 960 c-9 -15 -8 -121 1 -112 5 5 7 33 5 63 -2 30 -5 52 -6 49z"/>
<path d="M1096 934 c-4 -10 -1 -21 6 -26 19 -11 33 -4 33 18 0 24 -30 30 -39
8z"/>
<path d="M2883 939 c-16 -16 -5 -39 19 -39 14 0 19 6 16 22 -4 25 -19 33 -35
17z"/>
<path d="M1964 868 c18 -40 39 -73 46 -73 8 0 28 33 47 73 18 39 28 72 24 72
-5 0 -19 -24 -32 -54 -13 -32 -30 -56 -41 -59 -11 -3 -18 0 -18 9 0 18 -42
104 -51 104 -4 0 7 -33 25 -72z"/>
<path d="M1174 875 c-8 -19 12 -36 33 -28 19 7 12 37 -10 41 -9 2 -20 -4 -23
-13z"/>
<path d="M2803 874 c-3 -8 -1 -20 6 -27 14 -14 47 15 37 32 -10 16 -36 13 -43
-5z"/>
<path d="M1254 825 c-4 -9 -2 -21 4 -27 15 -15 44 -1 40 19 -4 23 -36 29 -44
8z"/>
<path d="M2724 825 c-7 -18 3 -35 21 -35 15 0 24 19 18 38 -6 17 -32 15 -39
-3z"/>
<path d="M2057 805 c-35 -31 -56 -31 -92 -3 l-28 21 12 -21 c23 -43 99 -40
129 6 18 28 14 27 -21 -3z"/>
<path d="M1337 776 c-7 -17 18 -40 33 -31 5 3 10 15 10 26 0 23 -35 27 -43 5z"/>
<path d="M2634 779 c-8 -14 21 -43 35 -35 6 4 11 16 11 27 0 21 -34 27 -46 8z"/>
<path d="M1424 735 c-4 -10 -1 -21 7 -26 20 -12 34 -5 34 17 0 24 -33 31 -41
9z"/>
<path d="M2547 736 c-9 -22 19 -42 37 -26 19 15 10 40 -14 40 -10 0 -20 -6
-23 -14z"/>
<path d="M1520 705 c-10 -11 -10 -19 -2 -27 15 -15 44 -2 40 19 -4 23 -22 27
-38 8z"/>
<path d="M2467 713 c-15 -14 -7 -43 12 -43 23 0 34 23 18 39 -13 13 -21 14
-30 4z"/>
<path d="M1610 675 c-10 -11 -10 -19 -2 -27 15 -15 44 -2 40 19 -4 23 -22 27
-38 8z"/>
<path d="M2373 679 c-16 -16 -5 -39 19 -39 14 0 19 6 16 22 -4 25 -19 33 -35
17z"/>
<path d="M1713 663 c-21 -8 -15 -43 6 -43 11 0 23 5 27 11 8 14 -17 38 -33 32z"/>
<path d="M2280 654 c-18 -20 6 -50 26 -33 8 6 14 17 14 24 0 19 -27 26 -40 9z"/>
<path d="M1794 635 c-4 -9 -2 -21 4 -27 15 -15 44 -1 40 19 -4 23 -36 29 -44
8z"/>
<path d="M2182 638 c-13 -13 2 -38 23 -38 18 0 26 25 12 39 -14 14 -20 14 -35
-1z"/>
<path d="M1897 633 c-4 -3 -7 -15 -7 -25 0 -21 36 -25 43 -5 9 27 -17 50 -36
30z"/>
<path d="M1991 622 c-12 -22 -6 -32 21 -32 14 0 19 6 16 22 -4 29 -24 34 -37
10z"/>
<path d="M2084 625 c-4 -9 -2 -21 4 -27 15 -15 44 -1 40 19 -4 23 -36 29 -44
8z"/>
</g>
</svg>
